<?xml version="1.0" encoding="UTF-8"?><svg id="Layer_1" xmlns="http://www.w3.org/2000/svg" xmlns:xlink="http://www.w3.org/1999/xlink" viewBox="0 0 250 250"><defs><style>.cls-1{fill:url(#radial-gradient);}.cls-1,.cls-2,.cls-3,.cls-4,.cls-5,.cls-6,.cls-7,.cls-8,.cls-9{fill-rule:evenodd;}.cls-2{fill:url(#radial-gradient-5);}.cls-3{fill:url(#radial-gradient-3);}.cls-4{fill:url(#radial-gradient-6);}.cls-5{fill:url(#radial-gradient-2);}.cls-6{fill:url(#radial-gradient-4);}.cls-7{fill:url(#radial-gradient-9);}.cls-8{fill:url(#radial-gradient-8);}.cls-9{fill:url(#radial-gradient-7);}</style><radialGradient id="radial-gradient" cx="-101.44" cy="-99.19" fx="-101.44" fy="-99.19" r="437.83" gradientUnits="userSpaceOnUse"><stop offset="0" stop-color="#fff"/><stop offset=".5" stop-color="#33c1d1"/><stop offset="1" stop-color="#522e8f"/></radialGradient><radialGradient id="radial-gradient-2" cx="277.29" cy="-66.19" fx="277.29" fy="-66.19" r="306.05" xlink:href="#radial-gradient"/><radialGradient id="radial-gradient-3" cx="-88.9" cy="196.29" fx="-88.9" fy="196.29" r="189.79" xlink:href="#radial-gradient"/><radialGradient id="radial-gradient-4" cx="-269.44" cy="225.54" fx="-269.44" fy="225.54" r="427.52" xlink:href="#radial-gradient"/><radialGradient id="radial-gradient-5" cx="-173.5" cy="-247.49" fx="-173.5" fy="-247.49" r="711.44" xlink:href="#radial-gradient"/><radialGradient id="radial-gradient-6" cx="-378.93" cy="231.54" fx="-378.93" fy="231.54" r="598.43" xlink:href="#radial-gradient"/><radialGradient id="radial-gradient-7" cx="53.13" cy="-70.03" fx="53.13" fy="-70.03" r="266.25" xlink:href="#radial-gradient"/><radialGradient id="radial-gradient-8" cx="-28.5" cy="-98.5" fx="-28.5" fy="-98.5" r="488.43" xlink:href="#radial-gradient"/><radialGradient id="radial-gradient-9" cx="122.5" cy="-93.5" fx="122.5" fy="-93.5" r="442.34" xlink:href="#radial-gradient"/></defs><path class="cls-1" d="m143.91,141.62c-19.66,14.86-41.48,40.43-66.55,47.41,4.19-5.56,6.95-11.46,7.82-17.86-16.23,5.7-35.13,1.66-46.57-5.64,18.79,37.9,47.27,70.77,86.39,84.47,71.03-24.87,106.95-112.86,113.61-179.64-12.01-4.07-22.22-10.97-31.62-18.87,42.67,107.76-78.47,149.27-63.08,90.14Z"/><path class="cls-5" d="m143.91,141.62c-23.56,43.78-4.28,82.98,36.04,70.85,35.14-38.6,54.02-95.52,58.67-142.12-12.01-4.07-22.22-10.97-31.62-18.87,42.67,107.76-78.47,149.27-63.08,90.14Z"/><path class="cls-3" d="m38.61,165.53c1.86,3.76,3.81,7.48,5.87,11.11,10.59,4.91,24.99,7.21,38.08,3.64,1.31-2.91,2.18-5.96,2.62-9.11-16.23,5.7-35.13,1.66-46.57-5.64Z"/><path class="cls-6" d="m86.93,200.2c23.41-11.34,40.31-40.43,56.98-58.58-15.86,11.98-33.13,30.95-52.39,41.51-.09,5.82-1.72,11.52-4.59,17.07Z"/><path class="cls-2" d="m125.46,127.57c-31.94,8.64-60.06,25.07-87.52-.52,8.76.46,16.06-1.37,22.31-4.8-28.19-25.37-27.05-56.63-7.24-79.76-12.22,11.52-25.19,22.31-41.62,27.86,3,29.99,11.89,64.28,27.23,95.17,11.43,7.3,30.34,11.35,46.57,5.64-.87,6.4-3.63,12.3-7.82,17.86,25.07-6.98,46.89-32.55,66.55-47.41,21.87-16.55,43.4-19.89,51.42-1.11,1.46-30.45-36.76-21.93-69.87-12.94Z"/><path class="cls-4" d="m125.46,127.57c-26.18,7.1-49.82,19.4-72.63,9.48-4.68,2.56-9.83,4.22-15.47,4.83,29.76,22.89,56.22,3.9,87.17-7.71,32.14-12.04,68.44-21.29,70.8,6.34,1.46-30.45-36.76-21.93-69.87-12.94Z"/><path class="cls-9" d="m53.01,42.5c-6.57,6.19-13.35,12.15-20.8,17.25-5.9,21.64-.87,45.14,18.3,66.26,3.52-.84,6.75-2.1,9.75-3.75-28.19-25.37-27.05-56.63-7.24-79.76Z"/><path class="cls-8" d="m183.76,111.2c.9-23.01-47.41-17.05-57.36-35.25-2.68,9.63-.29,17.13,6.23,22.89-72.34,6.75-27.17-100.87,51.51-68.58C167.27,14.25,149.98,0,125,0c-31.41,0-50.58,22.31-71.99,42.5-19.81,23.12-20.94,54.39,7.24,79.76-6.26,3.43-13.55,5.26-22.31,4.8,27.46,25.6,55.58,9.16,87.52.52,33.1-8.99,71.32-17.51,69.87,12.94,4.1-12.22,4.42-23.27-11.58-29.32Z"/><path class="cls-7" d="m53.01,42.5c-19.81,23.12-20.94,54.39,7.24,79.76C41.99,49.04,119.39-14.75,184.13,30.25,167.27,14.25,149.98,0,125,0c-31.41,0-50.58,22.31-71.99,42.5Z"/></svg>